<?xml version="1.0" encoding="UTF-8" standalone="no"?>
<!-- Created with Inkscape (http://www.inkscape.org/) -->
<svg
   xmlns:svg="http://www.w3.org/2000/svg"
   xmlns="http://www.w3.org/2000/svg"
   version="1.0"
   width="124"
   height="124"
   id="svg1337">
  <defs
     id="defs1340" />
  <path
     d="M 62.020069,4.5043758 C 30.307405,4.5043758 4.5043748,30.267271 4.5043748,61.979933 C 4.5043748,93.692597 30.307405,119.49562 62.020069,119.49562 C 93.732732,119.49562 119.49563,93.692597 119.49563,61.979933 C 119.49563,30.267271 93.732732,4.5043758 62.020069,4.5043758 z M 62.020069,9.4813095 C 91.027417,9.4813095 114.5187,32.972586 114.5187,61.979933 C 114.5187,90.987282 91.027417,114.47855 62.020069,114.47855 C 33.01272,114.47855 9.5214452,90.987282 9.5214452,61.979933 C 9.5214452,32.972586 33.01272,9.4813095 62.020069,9.4813095 z"
     id="path6654"
     style="fill:#000000;fill-opacity:1;fill-rule:evenodd;stroke:none;stroke-width:3.89296055;stroke-linecap:butt;stroke-linejoin:miter;marker:none;marker-start:none;marker-mid:none;marker-end:none;stroke-miterlimit:4;stroke-dashoffset:0;stroke-opacity:1;visibility:visible;display:inline;overflow:visible" />
  <path
     d="M 71.930736,63.341991 A 9.6623373,9.6623373 0 1 1 52.606061,63.341991 A 9.6623373,9.6623373 0 1 1 71.930736,63.341991 z"
     transform="matrix(1.1111111,0,0,1.1111111,-7.1871061,-8.3799919)"
     id="path2407"
     style="opacity:1;fill:#000000;fill-opacity:1;fill-rule:evenodd;stroke:none;stroke-width:3;stroke-miterlimit:4;stroke-dasharray:none;stroke-dashoffset:0;stroke-opacity:1" />
</svg>
