<?xml version="1.0" encoding="UTF-8"?>
<svg width="1200pt" height="1200pt" version="1.1" viewBox="0 0 1200 1200" xmlns="http://www.w3.org/2000/svg">
 <path d="m600 0c-331.37 0-600 268.63-600 600s268.63 600 600 600 600-268.63 600-600-268.63-600-600-600zm-29.316 1070.4c-17.172 9.9102-33.191 14.879-48.07 14.879-12.191 0-22.68-5.4102-31.465-16.246-8.7969-10.824-13.199-26.387-13.199-46.691 0-29.316 11.941-88.402 35.855-177.28 47.172-174.12 70.766-279 70.766-314.65 0-17.137-6.5391-25.715-19.621-25.715-14.449 0-50.305 19.621-107.59 58.859l-13.535-27.059c111.46-83.449 184.73-125.18 219.79-125.18 10.777 0 19.078 3.0352 24.938 9.1328 5.832 6.0859 8.7617 15 8.7617 26.723 0 28.414-10.379 81.66-31.129 159.71-52.848 198.94-79.262 319.6-79.262 361.99 0 15.348 6.9961 23.016 20.988 23.016 16.246 0 52.559-20.293 108.97-60.91l13.523 26.387c-64.504 51.91-117.76 89.578-159.72 113.04zm162.84-802c-15.121 17.148-32.363 25.715-51.742 25.715-15.793 0-28.871-5.293-39.254-15.898-10.379-10.598-15.562-25.141-15.562-43.645 0-23.004 8.1367-43.309 24.348-60.898 16.246-17.594 34.285-26.387 54.145-26.387 15.793 0 28.199 4.9688 37.223 14.891 9.0234 9.9258 13.523 24.133 13.523 42.625-0.011719 25.258-7.5586 46.461-22.68 63.598z"/>
</svg>
